<?xml version="1.0" encoding="utf-8"?>
<svg version="1.1" id="Capa_1" x="0px" y="0px" viewBox="36.695 59.352 536.244 535.746" style="enable-background:new 0 0 512 512;" xmlns="http://www.w3.org/2000/svg">
  <path style="fill: rgba(102, 48, 190, 0.31);" d="M 232.158 35.08 C 169.215 35.08 100.199 93.036 78.218 164.349 C 70.781 188.479 69.438 211.964 74.414 232.216 L 112.656 397.69 C 113.315 400.491 115.065 402.215 117.595 402.646 C 121.009 403.291 125.534 401.569 128.887 397.475 L 269.858 230.491 C 286.615 210.671 299.236 187.618 306.408 164.349 C 328.389 93.036 295.102 35.08 232.158 35.08 Z M 172.391 228.983 C 140.446 228.983 124.375 199.682 135.266 164.349 C 146.224 128.799 180.859 99.715 212.236 99.715 C 243.613 99.715 260.319 128.799 249.361 164.349 C 238.537 199.467 204.717 228.983 172.391 228.983 Z" transform="matrix(0.886039, 0.463611, -0.463611, 0.886039, 123.415022, -64.212902)"/>
  <g/>
  <g/>
  <g/>
  <g/>
  <g/>
  <g/>
  <g/>
  <g/>
  <g/>
  <g/>
  <g/>
  <g/>
  <g/>
  <g/>
  <g/>
</svg>