<?xml version="1.0" encoding="utf-8"?>
<svg id="Layer_35" enable-background="new 0 0 64 64" height="512" viewBox="0 0 64 64" width="512" xmlns="http://www.w3.org/2000/svg">
  <path d="M 27.957 61.62 C 28.797 62.657 30.044 63.252 31.378 63.252 C 32.712 63.252 33.957 62.657 34.798 61.62 L 50.664 42.02 C 54.23 37.617 56.192 32.071 56.192 26.405 L 56.192 26.029 C 56.192 12.346 45.061 1.213 31.378 1.213 C 17.695 1.213 6.562 12.346 6.562 26.029 L 6.562 26.405 C 6.562 32.07 8.524 37.617 12.09 42.019 Z M 31.378 5.349 C 42.779 5.349 52.057 14.626 52.057 26.029 C 52.057 37.431 42.779 46.708 31.378 46.708 C 19.975 46.708 10.698 37.431 10.698 26.029 C 10.698 14.626 19.975 5.349 31.378 5.349 Z" style="fill: rgb(215, 187, 255);"/>
  <path d="M 31.378 43.95 C 41.259 43.95 49.299 35.911 49.299 26.029 C 49.299 16.146 41.259 8.106 31.378 8.106 C 21.494 8.106 13.455 16.146 13.455 26.029 C 13.455 35.911 21.494 43.95 31.378 43.95 Z M 42.406 27.407 C 40.126 27.407 38.27 25.551 38.27 23.271 C 38.27 20.991 40.126 19.136 42.406 19.136 C 44.687 19.136 46.542 20.991 46.542 23.271 L 43.785 23.271 C 43.785 22.51 43.166 21.893 42.406 21.893 C 41.647 21.893 41.028 22.51 41.028 23.271 C 41.028 24.032 41.647 24.65 42.406 24.65 C 44.687 24.65 46.542 26.505 46.542 28.786 C 46.542 31.066 44.687 32.923 42.406 32.923 C 40.126 32.923 38.27 31.066 38.27 28.786 L 41.028 28.786 C 41.028 29.546 41.647 30.164 42.406 30.164 C 43.166 30.164 43.785 29.546 43.785 28.786 C 43.785 28.025 43.166 27.407 42.406 27.407 Z M 27.242 23.271 C 27.242 20.991 29.097 19.136 31.378 19.136 C 33.658 19.136 35.512 20.991 35.512 23.271 L 35.512 28.786 C 35.512 31.066 33.658 32.923 31.378 32.923 C 29.097 32.923 27.242 31.066 27.242 28.786 Z M 16.212 28.786 L 18.97 28.786 C 18.97 29.546 19.589 30.164 20.349 30.164 C 21.108 30.164 21.728 29.546 21.728 28.786 C 21.728 28.025 21.108 27.407 20.349 27.407 C 18.067 27.407 16.212 25.551 16.212 23.271 C 16.212 20.991 18.067 19.136 20.349 19.136 C 22.628 19.136 24.485 20.991 24.485 23.271 L 21.728 23.271 C 21.728 22.51 21.108 21.893 20.349 21.893 C 19.589 21.893 18.97 22.51 18.97 23.271 C 18.97 24.032 19.589 24.65 20.349 24.65 C 22.628 24.65 24.485 26.505 24.485 28.786 C 24.485 31.066 22.628 32.923 20.349 32.923 C 18.067 32.923 16.212 31.066 16.212 28.786 Z" style="fill: rgb(215, 187, 255);"/>
  <path d="M 31.378 30.164 C 32.137 30.164 32.755 29.546 32.755 28.786 L 32.755 23.271 C 32.755 22.51 32.137 21.893 31.378 21.893 C 30.618 21.893 29.999 22.51 29.999 23.271 L 29.999 28.786 C 29.999 29.546 30.618 30.164 31.378 30.164 Z" style="fill: rgb(215, 187, 255);"/>
</svg>