<?xml version="1.0" encoding="utf-8"?>
<svg version="1.1" id="Capa_1" x="0px" y="0px" viewBox="0 0 512 512" style="enable-background:new 0 0 512 512;" xmlns="http://www.w3.org/2000/svg">
  <defs>
    <linearGradient id="gradient-1" gradientUnits="userSpaceOnUse" x1="255.947" y1="0" x2="255.947" y2="512">
      <stop offset="0" style="stop-color: rgb(163, 236, 77);"/>
      <stop offset="1" style="stop-color: rgb(48, 190, 66);"/>
    </linearGradient>
    <linearGradient id="gradient-2" gradientUnits="userSpaceOnUse" x1="256.042" y1="0" x2="256.042" y2="512.001">
      <stop offset="0" style="stop-color: rgb(163, 236, 77);"/>
      <stop offset="1" style="stop-color: rgb(48, 190, 66);"/>
    </linearGradient>
  </defs>
  <path style="fill: url(#gradient-2);" d="M263.211,3.051c-2.015-1.976-4.73-3.073-7.552-3.051l0,0c-2.834,0.001-5.551,1.129-7.552,3.136 L35.328,216.555c-4.112,4.218-4.026,10.972,0.192,15.084c1.971,1.921,4.608,3.006,7.36,3.028h117.333v266.667 c0,5.891,4.776,10.667,10.667,10.667h170.667c5.891,0,10.667-4.776,10.667-10.667V234.667h116.885 c5.891,0.011,10.675-4.757,10.686-10.648c0.005-2.84-1.123-5.565-3.134-7.571L263.211,3.051z"/>
  <path d="M341.547,512H170.88c-5.891,0-10.667-4.776-10.667-10.667V234.667H42.88c-5.891-0.001-10.666-4.778-10.664-10.669 c0.001-2.822,1.12-5.53,3.112-7.528L248.107,3.051c2.015-1.976,4.73-3.073,7.552-3.051l0,0c2.831-0.005,5.548,1.115,7.552,3.115 l213.333,213.504c4.171,4.16,4.179,10.914,0.019,15.085c-2.006,2.011-4.731,3.139-7.571,3.134H352.214v266.496 C352.214,507.225,347.438,512,341.547,512z M181.547,490.667H330.88V224c0-5.891,4.776-10.667,10.667-10.667h101.803L255.616,25.6 L68.565,213.334h102.4c5.891,0,10.667,4.776,10.667,10.667L181.547,490.667z" style="fill: url(#gradient-1);"/>
  <g/>
  <g/>
  <g/>
  <g/>
  <g/>
  <g/>
  <g/>
  <g/>
  <g/>
  <g/>
  <g/>
  <g/>
  <g/>
  <g/>
  <g/>
</svg>