<?xml version="1.0" encoding="utf-8"?>
<svg version="1.1" id="Capa_1" x="0px" y="0px" viewBox="0 0 512 512" style="enable-background:new 0 0 512 512;" xmlns="http://www.w3.org/2000/svg">
  <defs>
    <linearGradient id="gradient-2" gradientUnits="userSpaceOnUse" x1="255.947" y1="0" x2="255.947" y2="512">
      <stop offset="0" style="stop-color: rgb(163, 236, 77);"/>
      <stop offset="1" style="stop-color: rgb(48, 190, 66);"/>
    </linearGradient>
  </defs>
  <path style="fill: rgba(255, 193, 7, 0);" d="M 263.211 3.051 C 261.196 1.075 258.481 -0.022 255.659 0 C 252.825 0.001 250.108 1.129 248.107 3.136 L 35.328 216.555 C 31.216 220.773 31.302 227.527 35.52 231.639 C 37.491 233.56 40.128 234.645 42.88 234.667 L 160.213 234.667 L 160.213 501.334 C 160.213 507.225 164.989 512.001 170.88 512.001 L 341.547 512.001 C 347.438 512.001 352.214 507.225 352.214 501.334 L 352.214 234.667 L 469.099 234.667 C 474.99 234.678 479.774 229.91 479.785 224.019 C 479.79 221.179 478.662 218.454 476.651 216.448 L 282.36 22.196 L 263.211 3.051 Z"/>
  <path d="M341.547,512H170.88c-5.891,0-10.667-4.776-10.667-10.667V234.667H42.88c-5.891-0.001-10.666-4.778-10.664-10.669 c0.001-2.822,1.12-5.53,3.112-7.528L248.107,3.051c2.015-1.976,4.73-3.073,7.552-3.051l0,0c2.831-0.005,5.548,1.115,7.552,3.115 l213.333,213.504c4.171,4.16,4.179,10.914,0.019,15.085c-2.006,2.011-4.731,3.139-7.571,3.134H352.214v266.496 C352.214,507.225,347.438,512,341.547,512z M181.547,490.667H330.88V224c0-5.891,4.776-10.667,10.667-10.667h101.803L255.616,25.6 L68.565,213.334h102.4c5.891,0,10.667,4.776,10.667,10.667L181.547,490.667z" style="fill: url(#gradient-2);"/>
  <g/>
  <g/>
  <g/>
  <g/>
  <g/>
  <g/>
  <g/>
  <g/>
  <g/>
  <g/>
  <g/>
  <g/>
  <g/>
  <g/>
  <g/>
</svg>